<?xml version="1.0" encoding="UTF-8" standalone="no"?>
<svg
   xmlns:dc="http://purl.org/dc/elements/1.1/"
   xmlns:cc="http://creativecommons.org/ns#"
   xmlns:rdf="http://www.w3.org/1999/02/22-rdf-syntax-ns#"
   xmlns:svg="http://www.w3.org/2000/svg"
   xmlns="http://www.w3.org/2000/svg"
   xmlns:xlink="http://www.w3.org/1999/xlink"
   xmlns:sodipodi="http://sodipodi.sourceforge.net/DTD/sodipodi-0.dtd"
   xmlns:inkscape="http://www.inkscape.org/namespaces/inkscape"
   sodipodi:docname="logo.svg"
   inkscape:version="1.0rc1 (09960d6, 2020-04-09)"
   inkscape:export-ydpi="5.1200004"
   inkscape:export-xdpi="5.1200004"
   inkscape:export-filename="/Users/aaron/tx_bowling/ui/public/favicon.ico.png"
   id="svg8"
   version="1.1"
   viewBox="0 0 158.75 158.75"
   height="600"
   width="600">
  <defs
     id="defs2">
    <path
       inkscape:connector-curvature="0"
       d="m 356.07,141.91 v 172.76 h 259.46 l -0.12,-0.51 -1.75,-0.58 -0.47,-0.89 -0.68,-0.91 0.31,-0.87 0.41,-1.23 0.92,-0.98 -0.96,-0.03 -0.6,-1.47 -1.03,-1.14 0.53,-1.15 -1.31,-0.74 -1.27,-0.83 0.2,-0.92 0.97,-0.6 0.42,-0.98 -1.18,-0.21 -0.89,-0.32 -1.27,-0.18 -0.53,-0.86 -0.88,-0.65 0.02,-0.89 -0.79,-1.12 -0.1,-0.84 0.94,-0.83 0.05,-0.95 -0.23,-0.94 0.39,-0.84 0.42,-0.88 -0.4,-1.51 -0.57,-1.03 -0.55,-0.88 0.52,-0.92 -0.47,-0.99 -0.81,-0.96 -0.8,-0.92 -0.08,-0.93 -0.44,-0.87 0.04,-0.89 -0.93,-0.33 -0.48,-0.98 -0.91,-0.07 -0.24,-0.86 -0.85,-0.42 -0.97,-0.52 -0.84,-1.51 -0.5,-1.07 -0.75,-0.92 -0.89,-0.49 -0.02,-1.39 -0.63,-84.17 -0.62,-1.12 -0.85,0.32 -1.09,0.46 -0.84,0.77 -0.26,-0.98 -0.91,-0.28 -0.89,-0.83 -0.93,0.54 -0.9,0.26 1.02,0.16 0.08,0.92 -0.97,-0.35 -0.85,0.61 -0.85,-0.29 0.29,-0.89 0.19,-0.88 -0.92,0.47 -0.54,1.07 -0.86,0.08 0.44,-1 -0.91,0.29 -0.5,1.22 -0.95,-0.26 -0.9,-0.28 -0.4,0.88 -0.92,0.03 -0.91,-0.84 0.37,-0.85 -0.91,0.3 -0.76,-1.19 -0.96,-0.39 -0.84,-0.5 0.41,-0.94 0.53,-1 -0.89,0.29 -1.07,0.68 -0.91,0.1 -1.05,0.11 0.73,-0.89 -0.88,-0.05 -1.39,0.07 0.37,-1.09 -1.23,0.37 1.18,-1 -0.89,0.11 -0.56,-0.97 0.05,0.94 -0.91,-0.16 -0.88,-0.2 -0.82,0.6 -0.91,-0.5 1.08,-0.1 0.33,-1.25 -0.96,0.23 -1.16,0.42 -1.54,-0.22 0.56,-0.98 -1.26,-0.27 0.81,0.9 -0.91,0.18 -0.82,-0.94 0.27,-0.9 -0.96,-0.1 -0.9,-0.47 0.22,-0.44 -1.29,0.45 -0.02,-0.85 -0.84,-0.39 0.13,0.94 -0.97,0.08 -1.17,-0.54 0.4,-0.9 -0.9,0.03 -0.85,-0.44 -0.79,-0.94 0.32,-0.99 -0.55,-1.05 0.15,1.04 -1.12,0.01 0.18,-1.2 -0.94,-0.37 -0.37,-1.36 -0.91,0.52 -1.06,-0.29 -1.52,-0.35 -0.26,-0.97 -0.24,-1.1 -0.86,-0.18 -0.16,1.38 -0.83,-0.86 0.49,-1 -0.94,0.47 -0.97,-0.59 0.47,-0.84 -0.83,-0.18 -1.48,-0.66 -1.55,-0.65 -1.25,0.49 -0.81,0.84 0.1,1.51 -0.62,1.03 -0.89,-1.13 0.16,1 -0.74,0.96 -0.91,-0.49 -1.07,0.39 -1.13,0.42 -0.98,-0.09 -0.97,0.22 -1.04,-0.32 -1.18,-0.02 -0.52,-0.87 -0.84,0.55 -1.04,-0.07 -0.14,-1.08 -1.06,0.89 -0.86,-0.46 0.1,-1.19 -0.39,-1.03 -0.89,-0.14 -0.92,-0.52 -0.88,0.81 -0.74,1.25 -1.02,-0.28 -1.11,0.85 -0.97,0.47 -0.89,-0.28 -1.15,-0.32 -0.78,0.85 0.37,0.88 -0.17,0.86 -1.12,-0.08 -0.89,-0.59 -0.88,0.47 -0.42,1.01 -0.84,-0.39 -0.85,-0.52 -1.28,-0.89 -1.68,-0.89 -0.73,1.36 -1.2,0.19 -0.94,-0.35 -0.73,0.97 -0.89,-0.62 -0.84,1.04 -1.09,-0.35 -1.31,-0.15 0.1,0.83 -1.3,-0.52 -0.99,0.16 -0.45,1 -0.91,0.47 0.87,-0.08 -0.13,1.38 -0.71,1.43 -0.89,0.43 -1.43,0.25 -1.18,-0.75 -1.07,-0.48 -0.87,0.5 -0.39,0.95 -0.02,1.14 -0.26,0.92 -0.94,0.73 -1.05,0.31 -0.47,-0.99 -0.42,-0.84 -0.91,-0.96 -0.83,-1.07 -0.86,-1.16 -0.84,-0.08 -0.86,0.25 -1.44,0.17 -0.71,-0.85 -0.07,-1.02 -0.65,-0.94 -0.86,0.26 -1,0.02 -0.91,-0.65 -1.65,-1.18 1.44,-1.25 0.21,-1.12 -1.62,0.07 -2.06,-0.98 -0.47,1.54 -0.05,1.17 -0.9,1.52 -0.94,0.26 -0.96,0.25 -1.12,-0.22 -0.3,-1.02 -0.78,-1.13 -0.85,-0.2 -1.23,0.23 -0.08,0.84 -0.86,0.18 -1.03,-1 -0.59,-1.56 -0.03,-0.92 -0.21,-1.4 -1.05,-1.11 -1.27,0.79 -0.95,0.49 -1.01,-0.7 -0.02,0.91 0.47,1.49 v 0.89 l -0.56,0.96 -1.1,1.34 -1.14,0.39 -0.94,-1.15 -0.94,1.04 1.62,0.47 0.16,0.84 -2.02,0.73 -0.08,0.89 0.43,1.44 -0.11,1.12 -0.91,1.1 -1.21,0.16 -0.94,-0.32 -0.86,-0.81 -0.33,-0.86 -0.34,-0.84 -0.32,-0.84 -0.49,-0.9 0.44,-1.6 1.33,-0.52 -0.15,-1.05 -0.29,-1.07 -0.47,-1.23 -0.89,-0.7 -0.94,-0.02 -0.84,0.62 -0.18,1.25 -0.81,1.13 -0.96,-0.57 -1.07,-0.92 -0.14,1.2 -0.91,0.13 -0.08,-0.89 -0.16,1 -0.88,1.69 -1.26,0.57 -0.92,0.04 h -0.93 l -1.2,-0.53 -0.39,-1.15 0.46,-1.18 0.03,-0.86 -0.58,-1.01 -1.67,-0.79 -1.56,0.76 -1.49,0.23 -1.02,-0.13 -0.36,-0.89 0.1,-0.94 0.24,-0.9 -0.89,-0.79 -1.13,-0.73 -1.7,-0.55 -1.01,0.42 -0.5,1.12 -0.78,1.04 -0.92,0.39 -0.98,0.35 -0.22,0.96 h -0.85 l 0.25,1.04 -0.96,0.5 -0.87,0.89 -1.06,0.66 -0.92,0.39 -1.12,-0.37 -0.97,-0.58 -1.1,-0.6 -1.06,-0.04 -0.94,-0.6 0.04,-1.24 0.9,-0.12 0.08,-1.29 -0.85,-0.26 0.79,-0.86 0.18,-1.74 -0.86,-0.82 -0.88,0.35 -1.68,0.31 -1.27,-0.14 -1.24,-0.36 -0.31,-0.92 -0.76,-0.86 0.86,-0.5 -1.25,-1.01 -0.29,-1.04 0.76,-0.92 0.55,-1.02 -0.5,-1.01 -0.28,-1.03 -1.26,0.52 -1.54,1.66 -1.77,-0.37 -1.05,-0.74 -1.1,0.27 -1.09,-0.06 -0.91,-0.21 -1.15,-0.91 -1.94,-0.26 -0.86,0.94 -0.52,0.96 -0.54,1.57 -0.85,0.39 -0.94,0.66 -1.03,0.42 -1.05,-0.24 -1.02,-0.88 -0.89,-1.16 -1.09,-1.41 -1.08,-1.01 -1.49,-0.27 -1.79,-0.1 -1.29,1.07 -0.88,0.16 -0.94,0.03 -1.04,0.54 -0.87,-0.6 -1.39,-0.36 -0.88,-0.84 -1,0.1 -1.41,0.37 -0.88,-1.02 -1,-0.5 -0.86,-0.83 -1.77,-0.47 -0.65,-0.88 -0.97,0.43 -1.02,0.29 -0.91,0.32 -0.86,-0.47 -1.18,-0.1 -0.88,0.28 -0.84,0.02 -0.18,-0.89 -1.05,0.66 -1.65,-0.39 v -0.84 l -0.29,-1.07 -0.02,-0.93 -0.49,-0.95 -0.11,-0.84 0.18,-1.11 -0.05,-1.05 -0.92,0.03 -0.33,-0.86 -0.94,-1.03 -0.89,-0.67 0.1,-0.89 -1.02,-0.79 z m 206.37,36.72 0.32,-0.84 -0.49,0.89 z"
       id="a2rGhYDLmQ" />
    <path
       inkscape:connector-curvature="0"
       d="m 356.24,142.64 -1.47,0.79 -0.73,173.01 260.98,-0.26 0.39,-2.02 -1.75,-0.58 -0.47,-0.89 -0.68,-0.91 0.31,-0.87 0.41,-1.23 0.92,-0.98 -0.96,-0.03 -0.6,-1.47 -1.03,-1.14 0.53,-1.15 -1.31,-0.74 -1.27,-0.83 0.2,-0.92 0.97,-0.6 0.42,-0.98 -1.18,-0.21 -0.89,-0.32 -1.27,-0.18 -0.53,-0.86 -0.88,-0.65 0.02,-0.89 -0.79,-1.12 -0.1,-0.84 0.94,-0.83 0.05,-0.95 -0.23,-0.94 0.39,-0.84 0.42,-0.88 -0.4,-1.51 -0.57,-1.03 -0.55,-0.88 0.52,-0.92 -0.47,-0.99 -0.81,-0.96 -0.8,-0.92 -0.08,-0.93 -0.44,-0.87 0.04,-0.89 -0.93,-0.33 -0.48,-0.98 -0.91,-0.07 -0.24,-0.86 -0.85,-0.42 -0.97,-0.52 -0.84,-1.51 -0.5,-1.07 -0.75,-0.92 -0.89,-0.49 -0.02,-1.39 -0.63,-84.17 -0.62,-1.12 -0.85,0.32 -1.09,0.46 -0.84,0.77 -0.26,-0.98 -0.91,-0.28 -0.89,-0.83 -0.93,0.54 -0.9,0.26 1.02,0.16 0.08,0.92 -0.97,-0.35 -0.85,0.61 -0.85,-0.29 0.29,-0.89 0.19,-0.88 -0.92,0.47 -0.54,1.07 -0.86,0.08 0.44,-1 -0.91,0.29 -0.5,1.22 -0.95,-0.26 -0.9,-0.28 -0.4,0.88 -0.92,0.03 -0.91,-0.84 0.37,-0.85 -0.91,0.3 -0.76,-1.19 -0.96,-0.39 -0.84,-0.5 0.41,-0.94 0.53,-1 -0.89,0.29 -1.07,0.68 -0.91,0.1 -1.05,0.11 0.73,-0.89 -0.88,-0.05 -1.39,0.07 0.37,-1.09 -1.23,0.37 1.18,-1 -0.89,0.11 -0.56,-0.97 0.05,0.94 -0.91,-0.16 -0.88,-0.2 -0.82,0.6 -0.91,-0.5 1.08,-0.1 0.33,-1.25 -0.96,0.23 -1.16,0.42 -1.54,-0.22 0.56,-0.98 -1.26,-0.27 0.81,0.9 -0.91,0.18 -0.82,-0.94 0.27,-0.9 -0.96,-0.1 -0.9,-0.47 0.22,-0.44 -1.29,0.45 -0.02,-0.85 -0.84,-0.39 0.13,0.94 -0.97,0.08 -1.17,-0.54 0.4,-0.9 -0.9,0.03 -0.85,-0.44 -0.79,-0.94 0.32,-0.99 -0.55,-1.05 0.15,1.04 -1.12,0.01 0.18,-1.2 -0.94,-0.37 -0.37,-1.36 -0.91,0.52 -1.06,-0.29 -1.52,-0.35 -0.26,-0.97 -0.24,-1.1 -0.86,-0.18 -0.16,1.38 -0.83,-0.86 0.49,-1 -0.94,0.47 -0.97,-0.59 0.47,-0.84 -0.83,-0.18 -1.48,-0.66 -1.55,-0.65 -1.25,0.49 -0.81,0.84 0.1,1.51 -0.62,1.03 -0.89,-1.13 0.16,1 -0.74,0.96 -0.91,-0.49 -1.07,0.39 -1.13,0.42 -0.98,-0.09 -0.97,0.22 -1.04,-0.32 -1.18,-0.02 -0.52,-0.87 -0.84,0.55 -1.04,-0.07 -0.14,-1.08 -1.06,0.89 -0.86,-0.46 0.1,-1.19 -0.39,-1.03 -0.89,-0.14 -0.92,-0.52 -0.88,0.81 -0.74,1.25 -1.02,-0.28 -1.11,0.85 -0.97,0.47 -0.89,-0.28 -1.15,-0.32 -0.78,0.85 0.37,0.88 -0.17,0.86 -1.12,-0.08 -0.89,-0.59 -0.88,0.47 -0.42,1.01 -0.84,-0.39 -0.85,-0.52 -1.28,-0.89 -1.68,-0.89 -0.73,1.36 -1.2,0.19 -0.94,-0.35 -0.73,0.97 -0.89,-0.62 -0.84,1.04 -1.09,-0.35 -1.31,-0.15 0.1,0.83 -1.3,-0.52 -0.99,0.16 -0.45,1 -0.91,0.47 0.87,-0.08 -0.13,1.38 -0.71,1.43 -0.89,0.43 -1.43,0.25 -1.18,-0.75 -1.07,-0.48 -0.87,0.5 -0.39,0.95 -0.02,1.14 -0.26,0.92 -0.94,0.73 -1.05,0.31 -0.47,-0.99 -0.42,-0.84 -0.91,-0.96 -0.83,-1.07 -0.86,-1.16 -0.84,-0.08 -0.86,0.25 -1.44,0.17 -0.71,-0.85 -0.07,-1.02 -0.65,-0.94 -0.86,0.26 -1,0.02 -0.91,-0.65 -1.65,-1.18 1.44,-1.25 0.21,-1.12 -1.62,0.07 -2.06,-0.98 -0.47,1.54 -0.05,1.17 -0.9,1.52 -0.94,0.26 -0.96,0.25 -1.12,-0.22 -0.3,-1.02 -0.78,-1.13 -0.85,-0.2 -1.23,0.23 -0.08,0.84 -0.86,0.18 -1.03,-1 -0.59,-1.56 -0.03,-0.92 -0.21,-1.4 -1.05,-1.11 -1.27,0.79 -0.95,0.49 -1.01,-0.7 -0.02,0.91 0.47,1.49 v 0.89 l -0.56,0.96 -1.1,1.34 -1.14,0.39 -0.94,-1.15 -0.94,1.04 1.62,0.47 0.16,0.84 -2.02,0.73 -0.08,0.89 0.43,1.44 -0.11,1.12 -0.91,1.1 -1.21,0.16 -0.94,-0.32 -0.86,-0.81 -0.33,-0.86 -0.34,-0.84 -0.32,-0.84 -0.49,-0.9 0.44,-1.6 1.33,-0.52 -0.15,-1.05 -0.29,-1.07 -0.47,-1.23 -0.89,-0.7 -0.94,-0.02 -0.84,0.62 -0.18,1.25 -0.81,1.13 -0.96,-0.57 -1.07,-0.92 -0.14,1.2 -0.91,0.13 -0.08,-0.89 -0.16,1 -0.88,1.69 -1.26,0.57 -0.92,0.04 h -0.93 l -1.2,-0.53 -0.39,-1.15 0.46,-1.18 0.03,-0.86 -0.58,-1.01 -1.67,-0.79 -1.56,0.76 -1.49,0.23 -1.02,-0.13 -0.36,-0.89 0.1,-0.94 0.24,-0.9 -0.89,-0.79 -1.13,-0.73 -1.7,-0.55 -1.01,0.42 -0.5,1.12 -0.78,1.04 -0.92,0.39 -0.98,0.35 -0.22,0.96 h -0.85 l 0.25,1.04 -0.96,0.5 -0.87,0.89 -1.06,0.66 -0.92,0.39 -1.12,-0.37 -0.97,-0.58 -1.1,-0.6 -1.06,-0.04 -0.94,-0.6 0.04,-1.24 0.9,-0.12 0.08,-1.29 -0.85,-0.26 0.79,-0.86 0.18,-1.74 -0.86,-0.82 -0.88,0.35 -1.68,0.31 -1.27,-0.14 -1.24,-0.36 -0.31,-0.92 -0.76,-0.86 0.86,-0.5 -1.25,-1.01 -0.29,-1.04 0.76,-0.92 0.55,-1.02 -0.5,-1.01 -0.28,-1.03 -1.26,0.52 -1.54,1.66 -1.77,-0.37 -1.05,-0.74 -1.1,0.27 -1.09,-0.06 -0.91,-0.21 -1.15,-0.91 -1.94,-0.26 -0.86,0.94 -0.52,0.96 -0.54,1.57 -0.85,0.39 -0.94,0.66 -1.03,0.42 -1.05,-0.24 -1.02,-0.88 -0.89,-1.16 -1.09,-1.41 -1.08,-1.01 -1.49,-0.27 -1.79,-0.1 -1.29,1.07 -0.88,0.16 -0.94,0.03 -1.04,0.54 -0.87,-0.6 -1.39,-0.36 -0.88,-0.84 -1,0.1 -1.41,0.37 -0.88,-1.02 -1,-0.5 -0.86,-0.83 -1.77,-0.47 -0.65,-0.88 -0.97,0.43 -1.02,0.29 -0.91,0.32 -0.86,-0.47 -1.18,-0.1 -0.88,0.28 -0.84,0.02 -0.18,-0.89 -1.05,0.66 -1.65,-0.39 v -0.84 l -0.29,-1.07 -0.02,-0.93 -0.49,-0.95 -0.11,-0.84 0.18,-1.11 -0.05,-1.05 -0.92,0.03 -0.33,-0.86 -0.94,-1.03 -0.89,-0.67 0.1,-0.89 z m 206.03,36.04 0.17,-0.05 0.32,-0.84 z"
       id="b72k2NGGG" />
    <path
       inkscape:connector-curvature="0"
       d="m 356.07,555.59 h 0.09 l 1.22,1.21 0.29,1.51 0.91,1.49 0.11,2.34 1.41,1.15 -0.05,1.68 0.44,2.06 1.02,1.98 0.49,3.3 0.03,1.32 1.05,0.45 1.15,0.62 0.64,0.89 0.42,1.02 -0.12,1 -0.19,0.85 -0.52,0.84 0.63,0.84 0.81,1.14 1.25,-0.26 1.04,-0.64 1.29,1.06 1.35,-0.42 0.89,0.37 -0.06,0.94 0.95,0.24 0.52,-1.05 0.58,1.12 1.01,0.79 0.86,-0.28 1.2,0.2 0.89,-0.67 0.94,0.2 0.36,0.99 0.29,0.94 0.84,0.39 0.99,-0.28 0.5,0.89 -0.18,1.07 1.07,0.33 0.88,0.4 -0.89,0.47 0.85,0.34 1.04,0.5 0.07,0.85 1,0.3 1.02,-0.89 1.09,-0.06 0.95,-0.24 0.93,0.89 0.37,0.84 0.67,-0.96 0.42,0.99 0.94,-0.1 0.5,1.03 1.13,0.37 -0.11,-0.96 0.92,-0.37 0.96,0.37 -0.18,1.01 0.88,0.52 1.03,1.07 1.01,0.84 1.02,-0.15 0.91,0.34 0.13,0.85 0.66,1.07 1.04,0.72 0.34,-0.85 1.13,0.17 -0.94,0.83 0.9,0.58 0.82,1.07 1.64,0.17 0.94,0.85 0.92,-0.97 0.59,0.96 0.85,-0.07 0.96,-0.52 1.15,0.33 0.89,-0.08 -0.22,0.99 0.85,-0.25 1.01,0.28 0.29,-1.14 0.94,0.31 0.84,-0.14 0.85,0.05 1.1,-0.22 0.91,-0.08 0.9,0.39 1.12,-0.55 1.15,-0.19 0.55,0.99 1.09,-0.22 0.84,-0.12 0.84,0.47 0.3,0.85 0.84,-0.55 0.21,0.98 1.12,-0.33 1.39,-0.21 0.86,0.5 1.07,-0.61 -0.26,1.02 1.25,-0.28 -0.28,0.93 0.91,0.09 -0.34,0.86 0.88,0.65 0.97,0.92 0.89,0.43 -0.39,0.87 1.51,0.08 0.91,0.91 0.13,0.94 0.24,0.89 1.08,-0.7 0.25,1.01 0.86,0.23 0.84,-0.41 0.5,0.91 0.39,0.97 1.28,-0.28 0.66,0.96 0.93,-0.14 -0.11,-0.91 0.76,-0.88 -0.33,-1 -0.4,-0.86 0.89,-0.71 1,-0.36 0.85,-0.31 0.86,-0.1 0.89,-0.11 v -0.91 l 1.44,0.15 0.91,-0.54 0.9,0.05 0.85,-0.01 0.9,-0.1 0.91,0.26 0.03,-0.84 2.53,-0.17 -0.13,-3.79 0.21,-1.26 -0.22,-1.22 -0.64,-0.89 -0.11,-2.24 -0.31,-2.88 -0.35,-2.76 -1.43,-6.95 -1.28,-5.51 -1.34,-5.52 -0.49,-1.15 -1.23,-3.52 -1.43,-5.58 -0.81,-3.89 -0.62,-4.31 -0.3,-3.9 -0.12,-1.41 v -2.24 l 0.17,-3.22 0.27,-3.28 0.2,-1.46 0.58,-2.96 0.37,-1.49 1.44,-5.37 0.31,-0.92 2.3,-5.92 1.59,-3.72 1.82,-3.96 3.43,-6.01 1.88,-2.01 1.12,-0.92 1.13,-3.93 0.96,-1.42 1.36,-1.8 1.54,-1.96 1.41,-1.67 4.47,-4.34 4.83,-4.15 2.03,-1.51 2.98,-2.09 4.82,-2.61 1.37,-0.6 0.93,-0.62 1.39,-1.92 0.31,-1.01 0.79,-1.02 1.22,-0.29 1.23,-1.09 0.4,-1.08 1.04,-0.75 2.43,-1.67 4.86,-2.62 3.46,-1.77 5.72,-2.77 4.44,-2.33 1.26,-0.72 9.89,-6.12 1.83,-0.83 3.37,-2.22 0.86,-0.02 1.07,-0.22 1.12,-0.42 1.42,-0.91 0.55,-0.91 0.88,-1.13 1.73,-1.15 1.17,-0.98 0.96,-0.89 1.16,-1.21 2.51,-2.97 0.9,-0.65 0.79,-1.81 0.11,-1.12 3.94,-1.98 1.67,-1.13 2.37,-1.88 3.29,-2.14 3.08,-1.82 1.44,-1.54 1.26,-1.24 0.96,0.29 1.2,-0.21 1.08,-1.06 0.83,-1.91 -0.19,-1.26 -0.99,-1.35 1.15,-0.81 5.73,-3 3.67,-1.71 2.23,-0.91 11.2,-5.24 4.18,-1.6 h 5.84 l 1.41,0.19 0.78,0.89 0.98,0.46 1.01,0.01 -0.65,-3.45 -0.4,-1.67 -1.67,-2.61 -0.89,-0.94 -0.23,-0.92 -1.28,-0.99 -0.07,-1.08 0.65,-0.98 1.27,-1 1.41,-1.02 1.13,-1.66 0.6,-1.31 0.16,-0.92 0.47,-1.49 0.68,-1.44 0.97,-0.82 1.2,-0.98 0.17,-0.86 1.57,-1.59 -0.96,-0.89 0.39,-0.99 0.66,-1.23 0.36,-1.04 -0.45,-1.05 -0.34,-1.02 -0.2,-0.98 -0.27,-0.99 0.42,-0.87 0.11,-0.91 0.05,-0.91 0.15,-0.89 -0.65,-0.84 -1.01,-0.6 -0.69,-1.02 -0.15,-0.91 0.39,-0.95 -0.19,-1.04 0.43,-0.97 0.78,-0.93 0.11,-0.94 1.01,-0.21 0.1,-0.84 -0.49,-1.1 0.11,-0.89 -0.08,-0.96 -0.31,-0.94 -0.89,-0.91 0.31,-0.84 0.16,-1.17 1.11,-0.79 0.85,-0.2 0.09,-0.89 -0.09,-0.92 0.1,-0.88 0.57,-0.92 0.86,-0.65 0.92,-0.44 0.5,-0.89 0.18,-1 0.34,-0.97 0.03,-0.9 0.36,-0.85 0.8,-0.91 0.38,-1.25 0.49,-0.87 0.47,-0.98 -0.16,-0.92 -0.33,-0.91 -0.38,-1.04 0.85,-0.84 0.49,-0.94 0.79,-0.95 -0.21,-0.94 -0.87,-0.69 -0.89,-0.5 -0.18,-0.86 0.08,-0.97 1,-0.03 1.25,-0.54 0.1,-1.2 -0.05,-0.84 -0.53,-0.94 -0.89,-0.24 -0.52,-0.86 0.81,-0.91 0.37,-0.84 -0.37,-0.92 0.35,-1.11 0.08,-0.22 h -2.28 l -0.13,0.09 -0.07,-0.09 -0.79,-0.83 0.21,-1.54 0.33,-1.02 -0.91,-0.41 0.01,-1 -0.09,-0.37 H 356.07 Z"
       id="aoiDXxj2o" />
    <path
       inkscape:connector-curvature="0"
       d="m 184.99,27.62 0.05,27.42 -0.06,9.58 0.05,1.83 -0.1,36.53 0.03,6.08 -0.06,38.5 0.03,15.95 -0.97,55.91 0.01,54.78 -99.88,0.02 -39.96,-0.13 -22.58,0.42 -0.85,0.99 0.87,0.66 0.18,0.86 -0.41,0.94 0.57,0.65 -1,0.57 -0.43,0.92 0.38,1 0.4,1.01 1.1,0.91 0.64,0.95 1.15,0.6 1.23,0.7 0.34,0.92 0.84,1.12 0.94,0.7 0.99,-0.59 1.33,0.13 1.05,0.33 1.72,1.23 0.26,0.86 1.04,0.87 0.69,1.82 1.41,2.27 0.31,1.02 0.37,0.89 0.36,1.38 1.56,1.12 1,2.23 0.28,1.17 0.84,0.94 1.12,0.4 0.86,0.98 1.13,0.66 1.07,0.16 1.52,1.35 3.23,0.29 2.33,1.51 0.28,1.39 0.73,1.46 1.29,0.32 0.57,0.93 0.99,0.06 0.86,1.31 0.65,0.94 0.81,0.98 1.1,1.52 0.66,1.07 0.77,1.02 0.97,-0.03 1.44,1.52 2.92,1.3 0.89,0.81 1.31,1.31 0.6,0.96 0.26,1.16 0.49,1.16 0.24,0.95 0.94,0.7 1.04,0.63 0.82,0.29 0.72,1.38 0.99,0.91 0.92,0.69 0.86,0.72 1.16,0.6 0.25,0.99 -0.31,0.9 1,0.23 0.91,0.26 1.04,0.68 0.87,0.31 0.43,0.91 0.89,-0.69 0.61,0.91 0.86,0.7 1.02,-0.45 0.89,-0.18 0.39,1.07 0.94,0.09 0.44,0.91 0.86,0.07 0.26,0.84 1.02,0.06 0.86,0.38 0.34,0.94 0.73,0.9 0.87,0.34 0.38,0.9 0.87,-0.09 0.91,0.41 0.87,0.03 0.72,1.25 0.11,0.84 0.16,1.14 0.94,0.61 0.89,0.44 0.85,0.23 0.63,0.89 0.55,1.1 0.37,0.84 0.33,0.99 0.39,0.97 0.24,0.91 -0.11,0.86 -0.02,1.07 0.42,1.07 0.16,0.84 -0.01,0.85 0.16,1.29 1.05,0.68 0.88,0.34 -0.52,0.89 0.68,0.94 0.87,0.64 0.43,0.87 0.82,0.29 0.15,1.06 0.34,1.03 1.21,0.51 0.83,1 0.16,1.2 0.29,0.96 0.38,1.05 0.01,0.91 -0.09,1.02 -0.28,0.84 0.18,0.92 0.21,1.17 -0.18,0.94 -0.57,0.84 0.13,1.06 0.34,0.91 0.13,0.85 0.21,0.9 0.02,0.9 0.57,0.86 -0.38,0.94 0.07,0.91 0.96,1.1 0.56,0.97 0.75,1.04 0.74,1.01 -0.26,0.87 0.85,0.76 0.47,1.01 0.73,0.89 0.39,0.91 0.29,0.99 0.48,0.9 0.18,0.93 0.07,0.95 v 0.86 l 0.84,0.7 0.4,0.84 0.44,0.84 0.89,0.34 0.88,0.65 0.74,0.86 2.66,2.4 0.57,0.89 0.87,0.41 1.45,0.73 0.87,-0.04 0.89,0.21 1.45,0.7 1.06,0.5 0.3,1.04 0.99,-0.11 -0.15,0.86 0.1,0.89 1.33,1.21 0.34,0.89 0.77,0.9 0.86,0.61 0.93,0.67 0.9,0.48 1.01,0.91 0.87,0.65 0.88,0.74 0.97,0.42 1.12,0.46 1.23,0.29 0.96,0.18 1.13,0.57 0.89,-0.15 0.88,0.13 1.18,0.19 0.86,0.49 1.01,-0.07 0.64,0.85 0.96,0.35 -0.1,0.88 0.16,0.86 1.01,-0.26 0.57,0.87 0.63,0.9 0.97,0.5 0.86,0.27 0.89,0.28 0.78,0.86 0.84,-0.03 0.99,-0.38 0.91,0.85 1.21,-0.23 0.96,0.5 0.91,0.44 0.55,0.86 0.92,0.9 1.04,1.07 -0.07,1.03 0.94,-0.13 0.78,0.92 0.83,0.78 0.94,0.29 0.92,0.49 0.97,0.04 0.26,-0.95 0.94,0.42 0.04,0.89 0.9,-0.36 -0.09,1.07 0.99,0.12 0.35,1.33 0.55,-1.06 1.43,0.63 0.97,-0.16 1.05,0.2 1.27,0.65 0.89,-0.3 1.26,-0.37 -0.01,-0.87 0.87,-1.43 -0.32,-0.99 0.89,-0.86 0.39,-0.87 0.58,-0.85 1.15,-0.3 0.17,-0.94 0.95,-0.9 0.31,-0.98 0.55,-0.85 0.68,-1.2 1.09,0.38 0.86,-0.51 0.89,-0.59 0.89,-0.57 0.94,-0.23 0.47,-0.92 -0.88,-0.85 -0.86,-0.77 0.17,-0.88 0.68,-0.95 -0.23,-0.85 0.37,-0.94 0.55,-1.44 1.25,-0.68 0.57,-1.28 0.89,-0.78 -0.62,-0.84 -0.17,-0.91 0.32,-0.99 0.34,-1 0.71,-0.86 -0.3,-0.96 0.47,-1.41 0.85,-0.78 0.04,-0.95 0.71,-1.02 -0.15,-0.99 0.86,0.27 0.36,-0.87 -0.15,-1.35 0.88,-0.98 0.65,-0.86 0.4,-1.06 0.44,-1.15 0.37,-1.15 0.99,-0.4 1.41,0.01 0.89,-0.68 0.94,-0.08 1.22,-1 0.37,1.03 0.92,-0.34 0.96,-0.58 -0.19,-0.99 0.9,0.12 1.28,0.03 1.03,0.18 0.98,0.24 0.98,0.44 0.89,-0.36 0.35,-1 0.18,-0.98 0.5,-1.52 0.56,-1.18 0.84,-0.31 0.89,-0.8 1.33,0.72 0.84,-0.18 0.84,0.18 0.67,0.87 1.15,0.28 1.1,-0.15 0.11,1.07 1.12,0.78 0.91,0.58 0.91,0.51 0.95,0.06 0.99,0.26 1.07,0.06 0.97,-0.9 1.03,0.01 0.85,0.26 0.94,-0.87 0.59,0.92 0.84,-0.19 0.29,0.92 0.81,-0.84 1.64,0.22 0.91,-0.72 0.82,0.76 0.86,0.09 -0.31,-0.85 0.88,0.43 0.32,1.09 1.17,-0.52 1.14,0.62 0.94,0.27 0.89,0.6 1.24,0.05 0.91,-0.55 0.78,0.91 0.81,-0.91 1.07,-0.2 1.43,0.05 0.21,-1.37 1.18,-0.67 0.18,1.25 0.34,1.55 1.25,-0.27 1.1,-1.07 1.05,-0.21 0.03,0.87 0.78,1.15 1.8,-0.61 -0.76,0.86 0.84,0.68 v 1.1 l 1.15,1.13 0.21,1.24 0.98,0.47 1.97,0.64 0.07,0.86 -0.55,1.79 0.06,0.89 0.96,0.79 0.6,-1.05 0.01,-0.88 0.39,-1.28 0.84,0.33 -0.08,1.08 0.08,2.61 -0.48,1.09 0.29,0.91 1.25,-0.12 1.59,0.12 0.95,0.89 0.91,1.47 1,-0.06 1.2,0.42 1.22,0.35 0.92,0.91 0.62,0.97 0.21,1.04 0.89,1.09 0.23,0.92 0.86,0.58 1.08,0.67 1.04,0.23 0.94,1.11 1.09,0.81 1.03,0.72 0.8,1.26 1.16,0.7 1.04,0.52 0.86,0.39 0.55,1.02 0.5,0.95 0.34,0.85 -0.4,1.2 0.74,0.89 0.99,0.99 1.28,1.05 1.19,0.52 0.61,1 0.29,0.97 0.05,1.45 0.13,0.9 0.29,0.88 0.21,1.05 0.04,1.04 0.01,0.91 -0.14,0.94 0.56,0.87 0.12,0.88 1.02,0.53 0.99,0.68 0.08,0.93 0.81,1.33 0.11,1.21 1.1,0.55 0.6,0.93 -0.14,1.18 0.14,1 0.86,0.51 0.36,0.98 v 0.85 l -0.16,1.42 0.65,1.77 0.03,0.02 0.95,0.6 1.32,0.55 -0.13,1.1 0.84,1.13 1.49,1.14 -0.63,1.36 0.5,1.08 0.55,0.9 1.19,0.34 1.08,0.37 -0.26,0.84 -1.07,0.62 0.76,0.87 0.6,0.89 0.04,0.86 -0.57,1.35 0.36,0.97 1.11,1.51 0.62,1.26 0.7,0.96 0.04,0.86 0.2,1.67 0.71,1.11 0.97,0.9 1.32,0.38 0.16,1.17 0.27,0.84 1.03,0.25 1.15,0.97 h 0.87 l 0.99,0.68 1.62,0.6 0.57,1.31 0.74,1.07 0.42,1.22 1.12,0.55 0.26,0.86 0.15,0.89 0.31,1.02 0.43,0.92 0.88,0.67 1.25,0.34 0.81,0.86 -0.31,1 0.6,1.2 1.18,0.83 0.28,1.05 -0.47,0.97 0.48,1.06 0.81,0.99 0.1,1.37 0.18,1.01 1.15,0.86 0.53,0.87 0.91,-0.6 0.34,0.83 0.42,1.26 1.19,0.2 0.58,1.1 1.15,1.46 0.5,1.05 1.02,0.59 0.93,-0.2 0.95,0.62 -0.03,0.92 0.91,0.23 1.05,-0.6 1.01,-0.05 0.74,1.1 -0.05,0.89 1.09,-0.66 0.86,1.25 0.89,1.05 -0.1,1.05 -0.16,1.01 -0.14,0.89 -0.04,1.2 1.09,-0.2 0.96,0.65 -0.2,1.36 -0.45,1.36 0.37,1.5 -0.24,1.07 -0.3,1.03 -0.38,1.04 -0.07,1.12 -1.02,0.55 0.47,1.08 0.92,-0.11 0.62,0.89 0.29,1.64 1.31,-0.23 0.51,1.49 -0.07,0.99 0.46,0.93 0.29,1.41 -0.52,1.19 0.29,0.91 -0.08,1.01 0.13,1.34 -0.2,0.89 -0.72,1.33 0.3,1.15 0.23,1.02 1.07,-0.14 0.53,1.08 1.25,1.09 -0.79,0.92 0.26,0.91 1.23,0.84 1.08,0.34 0.72,0.88 0.22,2.24 0.9,0.03 V 141.91 l -1.02,0.32 -0.94,-1.16 -0.86,-1.41 -1.01,-0.07 -0.55,1.38 0.16,1 -0.27,0.86 -0.85,1.1 -1.1,0.36 -0.89,-0.49 -0.73,-0.84 -1.17,-0.74 -0.9,-0.3 -1.02,0.07 -0.96,-0.23 -1,0.54 -0.02,0.89 -0.7,0.91 -1.1,0.06 -1.1,-0.48 -1.06,0.25 -1.08,-0.03 -0.91,-0.89 -0.55,-0.87 -1.25,-0.59 -0.84,-1.1 -0.96,-0.7 -1,-1.46 -0.8,-1.06 -0.92,-0.64 -0.71,-0.87 -0.73,-1.06 -0.86,-0.63 -1.41,-1 -0.89,-0.1 -0.81,0.89 -1.31,0.1 V 27.77 h -22.61 v -0.13 h -22.01 l -5.58,0.05 -46.73,-0.08 z"
       id="eoHqXsDCn" />
    <path
       inkscape:connector-curvature="0"
       d="m 335.57,313.01 c 0,39.75 -32.27,72.02 -72.01,72.02 -39.75,0 -72.02,-32.27 -72.02,-72.02 0,-39.74 32.27,-72.01 72.02,-72.01 39.74,0 72.01,32.27 72.01,72.01 z"
       id="arL3jqcnO" />
    <path
       inkscape:connector-curvature="0"
       d="m 260.56,276.27 c 0,4.12 -3.48,7.47 -7.76,7.47 -4.29,0 -7.76,-3.35 -7.76,-7.47 0,-4.12 3.47,-7.47 7.76,-7.47 4.28,0 7.76,3.35 7.76,7.47 z"
       id="b8N2Eum6q" />
    <path
       inkscape:connector-curvature="0"
       d="m 278.97,282.51 c -3.22,2.57 -8,1.94 -10.67,-1.41 -2.67,-3.34 -2.22,-8.15 1,-10.72 3.22,-2.57 8.01,-1.94 10.68,1.41 2.67,3.35 2.22,8.15 -1.01,10.72 z"
       id="c9fJ6BcsZC" />
    <path
       inkscape:connector-curvature="0"
       d="m 273.78,354.74 c 0.1,5.43 -4.39,9.93 -10.03,10.04 -5.64,0.11 -10.31,-4.21 -10.42,-9.64 -0.1,-5.43 4.39,-9.93 10.03,-10.04 5.65,-0.11 10.31,4.21 10.42,9.64 z"
       id="cTXhZNQK" />
  </defs>
  <sodipodi:namedview
     inkscape:window-maximized="0"
     inkscape:window-y="23"
     inkscape:window-x="0"
     inkscape:window-height="775"
     inkscape:window-width="1252"
     units="px"
     showgrid="false"
     inkscape:document-rotation="0"
     inkscape:current-layer="g68"
     inkscape:document-units="px"
     inkscape:cy="362.41455"
     inkscape:cx="81.567559"
     inkscape:zoom="1.0132006"
     inkscape:pageshadow="2"
     inkscape:pageopacity="0.0"
     borderopacity="1.0"
     bordercolor="#666666"
     pagecolor="#ffffff"
     id="base" />
  <metadata
     id="metadata5">
    <rdf:RDF>
      <cc:Work
         rdf:about="">
        <dc:format>image/svg+xml</dc:format>
        <dc:type
           rdf:resource="http://purl.org/dc/dcmitype/StillImage" />
        <dc:title></dc:title>
      </cc:Work>
    </rdf:RDF>
  </metadata>
  <g
     id="layer1"
     inkscape:groupmode="layer"
     inkscape:label="Layer 1">
    <g
       transform="matrix(0.26433496,0,0,0.27120477,-5.2701718,-7.3523617)"
       id="g68">
      <g
         id="g26">
        <use
           height="100%"
           width="100%"
           y="0"
           x="0"
           id="use20"
           fill-opacity="1"
           fill="#ffffff"
           opacity="1"
           xlink:href="#a2rGhYDLmQ" />
        <g
           id="g24">
          <use
             height="100%"
             width="100%"
             y="0"
             x="0"
             id="use22"
             stroke-opacity="0"
             stroke-width="1"
             stroke="#000000"
             fill-opacity="0"
             opacity="1"
             xlink:href="#a2rGhYDLmQ" />
        </g>
      </g>
      <g
         id="g34">
        <use
           height="100%"
           width="100%"
           y="0"
           x="0"
           id="use28"
           fill-opacity="0"
           fill="#000000"
           opacity="1"
           xlink:href="#b72k2NGGG" />
        <g
           id="g32">
          <use
             height="100%"
             width="100%"
             y="0"
             x="0"
             id="use30"
             stroke-opacity="1"
             stroke-width="4"
             stroke="#bf0a30"
             fill-opacity="0"
             opacity="1"
             xlink:href="#b72k2NGGG" />
        </g>
      </g>
      <g
         id="g42">
        <use
           height="100%"
           width="100%"
           y="0"
           x="0"
           id="use36"
           fill-opacity="1"
           fill="#bf0a30"
           opacity="1"
           xlink:href="#aoiDXxj2o" />
        <g
           id="g40">
          <use
             height="100%"
             width="100%"
             y="0"
             x="0"
             id="use38"
             stroke-opacity="0"
             stroke-width="1"
             stroke="#000000"
             fill-opacity="0"
             opacity="1"
             xlink:href="#aoiDXxj2o" />
        </g>
      </g>
      <g
         id="g50">
        <use
           height="100%"
           width="100%"
           y="0"
           x="0"
           id="use44"
           fill-opacity="1"
           fill="#002868"
           opacity="1"
           xlink:href="#eoHqXsDCn" />
        <g
           id="g48">
          <use
             height="100%"
             width="100%"
             y="0"
             x="0"
             id="use46"
             stroke-opacity="0"
             stroke-width="1"
             stroke="#000000"
             fill-opacity="0"
             opacity="1"
             xlink:href="#eoHqXsDCn" />
        </g>
      </g>
      <g
         id="g54">
        <use
           height="100%"
           width="100%"
           y="0"
           x="0"
           id="use52"
           fill-opacity="1"
           fill="#ffffff"
           opacity="1"
           xlink:href="#arL3jqcnO" />
      </g>
      <g
         transform="matrix(1.1503514,0,0,1.152232,-39.175564,-40.919958)"
         id="g58">
        <use
           height="100%"
           width="100%"
           y="0"
           x="0"
           id="use56"
           fill-opacity="1"
           fill="#bf0a30"
           opacity="1"
           xlink:href="#b8N2Eum6q" />
      </g>
      <g
         transform="matrix(1.1231096,0,0,1.0892414,-32.815832,-23.988025)"
         id="g62">
        <use
           height="100%"
           width="100%"
           y="0"
           x="0"
           id="use60"
           fill-opacity="1"
           fill="#bf0a30"
           opacity="1"
           xlink:href="#c9fJ6BcsZC" />
      </g>
      <g
         transform="matrix(1.3422612,0,0,1.3466267,-90.525557,-127.66515)"
         id="g66">
        <use
           height="100%"
           width="100%"
           y="0"
           x="0"
           id="use64"
           fill-opacity="1"
           fill="#bf0a30"
           opacity="1"
           xlink:href="#cTXhZNQK" />
      </g>
    </g>
  </g>
</svg>
