<?xml version="1.0" encoding="UTF-8" standalone="no"?>
<!DOCTYPE svg PUBLIC "-//W3C//DTD SVG 1.1//EN" "http://www.w3.org/Graphics/SVG/1.1/DTD/svg11.dtd">
<svg version="1.1" xmlns="http://www.w3.org/2000/svg" xmlns:xlink="http://www.w3.org/1999/xlink" preserveAspectRatio="xMidYMid meet" viewBox="0 0 640 640" width="640" height="640"><defs><path d="M356.07 141.91L356.07 314.67L615.53 314.67L615.41 314.16L613.66 313.58L613.19 312.69L612.51 311.78L612.82 310.91L613.23 309.68L614.15 308.7L613.19 308.67L612.59 307.2L611.56 306.06L612.09 304.91L610.78 304.17L609.51 303.34L609.71 302.42L610.68 301.82L611.1 300.84L609.92 300.63L609.03 300.31L607.76 300.13L607.23 299.27L606.35 298.62L606.37 297.73L605.58 296.61L605.48 295.77L606.42 294.94L606.47 293.99L606.24 293.05L606.63 292.21L607.05 291.33L606.65 289.82L606.08 288.79L605.53 287.91L606.05 286.99L605.58 286L604.77 285.04L603.97 284.12L603.89 283.19L603.45 282.32L603.49 281.43L602.56 281.1L602.08 280.12L601.17 280.05L600.93 279.19L600.08 278.77L599.11 278.25L598.27 276.74L597.77 275.67L597.02 274.75L596.13 274.26L596.11 272.87L595.48 188.7L594.86 187.58L594.01 187.9L592.92 188.36L592.08 189.13L591.82 188.15L590.91 187.87L590.02 187.04L589.09 187.58L588.19 187.84L589.21 188L589.29 188.92L588.32 188.57L587.47 189.18L586.62 188.89L586.91 188L587.1 187.12L586.18 187.59L585.64 188.66L584.78 188.74L585.22 187.74L584.31 188.03L583.81 189.25L582.86 188.99L581.96 188.71L581.56 189.59L580.64 189.62L579.73 188.78L580.1 187.93L579.19 188.23L578.43 187.04L577.47 186.65L576.63 186.15L577.04 185.21L577.57 184.21L576.68 184.5L575.61 185.18L574.7 185.28L573.65 185.39L574.38 184.5L573.5 184.45L572.11 184.52L572.48 183.43L571.25 183.8L572.43 182.8L571.54 182.91L570.98 181.94L571.03 182.88L570.12 182.72L569.24 182.52L568.42 183.12L567.51 182.62L568.59 182.52L568.92 181.27L567.96 181.5L566.8 181.92L565.26 181.7L565.82 180.72L564.56 180.45L565.37 181.35L564.46 181.53L563.64 180.59L563.91 179.69L562.95 179.59L562.05 179.12L562.27 178.68L560.98 179.13L560.96 178.28L560.12 177.89L560.25 178.83L559.28 178.91L558.11 178.37L558.51 177.47L557.61 177.5L556.76 177.06L555.97 176.12L556.29 175.13L555.74 174.08L555.89 175.12L554.77 175.13L554.95 173.93L554.01 173.56L553.64 172.2L552.73 172.72L551.67 172.43L550.15 172.08L549.89 171.11L549.65 170.01L548.79 169.83L548.63 171.21L547.8 170.35L548.29 169.35L547.35 169.82L546.38 169.23L546.85 168.39L546.02 168.21L544.54 167.55L542.99 166.9L541.74 167.39L540.93 168.23L541.03 169.74L540.41 170.77L539.52 169.64L539.68 170.64L538.94 171.6L538.03 171.11L536.96 171.5L535.83 171.92L534.85 171.83L533.88 172.05L532.84 171.73L531.66 171.71L531.14 170.84L530.3 171.39L529.26 171.32L529.12 170.24L528.06 171.13L527.2 170.67L527.3 169.48L526.91 168.45L526.02 168.31L525.1 167.79L524.22 168.6L523.48 169.85L522.46 169.57L521.35 170.42L520.38 170.89L519.49 170.61L518.34 170.29L517.56 171.14L517.93 172.02L517.76 172.88L516.64 172.8L515.75 172.21L514.87 172.68L514.45 173.69L513.61 173.3L512.76 172.78L511.48 171.89L509.8 171L509.07 172.36L507.87 172.55L506.93 172.2L506.2 173.17L505.31 172.55L504.47 173.59L503.38 173.24L502.07 173.09L502.17 173.92L500.87 173.4L499.88 173.56L499.43 174.56L498.52 175.03L499.39 174.95L499.26 176.33L498.55 177.76L497.66 178.19L496.23 178.44L495.05 177.69L493.98 177.21L493.11 177.71L492.72 178.66L492.7 179.8L492.44 180.72L491.5 181.45L490.45 181.76L489.98 180.77L489.56 179.93L488.65 178.97L487.82 177.9L486.96 176.74L486.12 176.66L485.26 176.91L483.82 177.08L483.11 176.23L483.04 175.21L482.39 174.27L481.53 174.53L480.53 174.55L479.62 173.9L477.97 172.72L479.41 171.47L479.62 170.35L478 170.42L475.94 169.44L475.47 170.98L475.42 172.15L474.52 173.67L473.58 173.93L472.62 174.18L471.5 173.96L471.2 172.94L470.42 171.81L469.57 171.61L468.34 171.84L468.26 172.68L467.4 172.86L466.37 171.86L465.78 170.3L465.75 169.38L465.54 167.98L464.49 166.87L463.22 167.66L462.27 168.15L461.26 167.45L461.24 168.36L461.71 169.85L461.71 170.74L461.15 171.7L460.05 173.04L458.91 173.43L457.97 172.28L457.03 173.32L458.65 173.79L458.81 174.63L456.79 175.36L456.71 176.25L457.14 177.69L457.03 178.81L456.12 179.91L454.91 180.07L453.97 179.75L453.11 178.94L452.78 178.08L452.44 177.24L452.12 176.4L451.63 175.5L452.07 173.9L453.4 173.38L453.25 172.33L452.96 171.26L452.49 170.03L451.6 169.33L450.66 169.31L449.82 169.93L449.64 171.18L448.83 172.31L447.87 171.74L446.8 170.82L446.66 172.02L445.75 172.15L445.67 171.26L445.51 172.26L444.63 173.95L443.37 174.52L442.45 174.56L441.52 174.56L440.32 174.03L439.93 172.88L440.39 171.7L440.42 170.84L439.84 169.83L438.17 169.04L436.61 169.8L435.12 170.03L434.1 169.9L433.74 169.01L433.84 168.07L434.08 167.17L433.19 166.38L432.06 165.65L430.36 165.1L429.35 165.52L428.85 166.64L428.07 167.68L427.15 168.07L426.17 168.42L425.95 169.38L425.1 169.38L425.35 170.42L424.39 170.92L423.52 171.81L422.46 172.47L421.54 172.86L420.42 172.49L419.45 171.91L418.35 171.31L417.29 171.27L416.35 170.67L416.39 169.43L417.29 169.31L417.37 168.02L416.52 167.76L417.31 166.9L417.49 165.16L416.63 164.34L415.75 164.69L414.07 165L412.8 164.86L411.56 164.5L411.25 163.58L410.49 162.72L411.35 162.22L410.1 161.21L409.81 160.17L410.57 159.25L411.12 158.23L410.62 157.22L410.34 156.19L409.08 156.71L407.54 158.37L405.77 158L404.72 157.26L403.62 157.53L402.53 157.47L401.62 157.26L400.47 156.35L398.53 156.09L397.67 157.03L397.15 157.99L396.61 159.56L395.76 159.95L394.82 160.61L393.79 161.03L392.74 160.79L391.72 159.91L390.83 158.75L389.74 157.34L388.66 156.33L387.17 156.06L385.38 155.96L384.09 157.03L383.21 157.19L382.27 157.22L381.23 157.76L380.36 157.16L378.97 156.8L378.09 155.96L377.09 156.06L375.68 156.43L374.8 155.41L373.8 154.91L372.94 154.08L371.17 153.61L370.52 152.73L369.55 153.16L368.53 153.45L367.62 153.77L366.76 153.3L365.58 153.2L364.7 153.48L363.86 153.5L363.68 152.61L362.63 153.27L360.98 152.88L360.98 152.04L360.69 150.97L360.67 150.04L360.18 149.09L360.07 148.25L360.25 147.14L360.2 146.09L359.28 146.12L358.95 145.26L358.01 144.23L357.12 143.56L357.22 142.67L356.2 141.88L356.07 141.91ZM562.44 178.63L562.76 177.79L562.27 178.68L562.44 178.63Z" id="a2rGhYDLmQ"></path><path d="M356.24 142.64L354.77 143.43L354.04 316.44L615.02 316.18L615.41 314.16L613.66 313.58L613.19 312.69L612.51 311.78L612.82 310.91L613.23 309.68L614.15 308.7L613.19 308.67L612.59 307.2L611.56 306.06L612.09 304.91L610.78 304.17L609.51 303.34L609.71 302.42L610.68 301.82L611.1 300.84L609.92 300.63L609.03 300.31L607.76 300.13L607.23 299.27L606.35 298.62L606.37 297.73L605.58 296.61L605.48 295.77L606.42 294.94L606.47 293.99L606.24 293.05L606.63 292.21L607.05 291.33L606.65 289.82L606.08 288.79L605.53 287.91L606.05 286.99L605.58 286L604.77 285.04L603.97 284.12L603.89 283.19L603.45 282.32L603.49 281.43L602.56 281.1L602.08 280.12L601.17 280.05L600.93 279.19L600.08 278.77L599.11 278.25L598.27 276.74L597.77 275.67L597.02 274.75L596.13 274.26L596.11 272.87L595.48 188.7L594.86 187.58L594.01 187.9L592.92 188.36L592.08 189.13L591.82 188.15L590.91 187.87L590.02 187.04L589.09 187.58L588.19 187.84L589.21 188L589.29 188.92L588.32 188.57L587.47 189.18L586.62 188.89L586.91 188L587.1 187.12L586.18 187.59L585.64 188.66L584.78 188.74L585.22 187.74L584.31 188.03L583.81 189.25L582.86 188.99L581.96 188.71L581.56 189.59L580.64 189.62L579.73 188.78L580.1 187.93L579.19 188.23L578.43 187.04L577.47 186.65L576.63 186.15L577.04 185.21L577.57 184.21L576.68 184.5L575.61 185.18L574.7 185.28L573.65 185.39L574.38 184.5L573.5 184.45L572.11 184.52L572.48 183.43L571.25 183.8L572.43 182.8L571.54 182.91L570.98 181.94L571.03 182.88L570.12 182.72L569.24 182.52L568.42 183.12L567.51 182.62L568.59 182.52L568.92 181.27L567.96 181.5L566.8 181.92L565.26 181.7L565.82 180.72L564.56 180.45L565.37 181.35L564.46 181.53L563.64 180.59L563.91 179.69L562.95 179.59L562.05 179.12L562.27 178.68L560.98 179.13L560.96 178.28L560.12 177.89L560.25 178.83L559.28 178.91L558.11 178.37L558.51 177.47L557.61 177.5L556.76 177.06L555.97 176.12L556.29 175.13L555.74 174.08L555.89 175.12L554.77 175.13L554.95 173.93L554.01 173.56L553.64 172.2L552.73 172.72L551.67 172.43L550.15 172.08L549.89 171.11L549.65 170.01L548.79 169.83L548.63 171.21L547.8 170.35L548.29 169.35L547.35 169.82L546.38 169.23L546.85 168.39L546.02 168.21L544.54 167.55L542.99 166.9L541.74 167.39L540.93 168.23L541.03 169.74L540.41 170.77L539.52 169.64L539.68 170.64L538.94 171.6L538.03 171.11L536.96 171.5L535.83 171.92L534.85 171.83L533.88 172.05L532.84 171.73L531.66 171.71L531.14 170.84L530.3 171.39L529.26 171.32L529.12 170.24L528.06 171.13L527.2 170.67L527.3 169.48L526.91 168.45L526.02 168.31L525.1 167.79L524.22 168.6L523.48 169.85L522.46 169.57L521.35 170.42L520.38 170.89L519.49 170.61L518.34 170.29L517.56 171.14L517.93 172.02L517.76 172.88L516.64 172.8L515.75 172.21L514.87 172.68L514.45 173.69L513.61 173.3L512.76 172.78L511.48 171.89L509.8 171L509.07 172.36L507.87 172.55L506.93 172.2L506.2 173.17L505.31 172.55L504.47 173.59L503.38 173.24L502.07 173.09L502.17 173.92L500.87 173.4L499.88 173.56L499.43 174.56L498.52 175.03L499.39 174.95L499.26 176.33L498.55 177.76L497.66 178.19L496.23 178.44L495.05 177.69L493.98 177.21L493.11 177.71L492.72 178.66L492.7 179.8L492.44 180.72L491.5 181.45L490.45 181.76L489.98 180.77L489.56 179.93L488.65 178.97L487.82 177.9L486.96 176.74L486.12 176.66L485.26 176.91L483.82 177.08L483.11 176.23L483.04 175.21L482.39 174.27L481.53 174.53L480.53 174.55L479.62 173.9L477.97 172.72L479.41 171.47L479.62 170.35L478 170.42L475.94 169.44L475.47 170.98L475.42 172.15L474.52 173.67L473.58 173.93L472.62 174.18L471.5 173.96L471.2 172.94L470.42 171.81L469.57 171.61L468.34 171.84L468.26 172.68L467.4 172.86L466.37 171.86L465.78 170.3L465.75 169.38L465.54 167.98L464.49 166.87L463.22 167.66L462.27 168.15L461.26 167.45L461.24 168.36L461.71 169.85L461.71 170.74L461.15 171.7L460.05 173.04L458.91 173.43L457.97 172.28L457.03 173.32L458.65 173.79L458.81 174.63L456.79 175.36L456.71 176.25L457.14 177.69L457.03 178.81L456.12 179.91L454.91 180.07L453.97 179.75L453.11 178.94L452.78 178.08L452.44 177.24L452.12 176.4L451.63 175.5L452.07 173.9L453.4 173.38L453.25 172.33L452.96 171.26L452.49 170.03L451.6 169.33L450.66 169.31L449.82 169.93L449.64 171.18L448.83 172.31L447.87 171.74L446.8 170.82L446.66 172.02L445.75 172.15L445.67 171.26L445.51 172.26L444.63 173.95L443.37 174.52L442.45 174.56L441.52 174.56L440.32 174.03L439.93 172.88L440.39 171.7L440.42 170.84L439.84 169.83L438.17 169.04L436.61 169.8L435.12 170.03L434.1 169.9L433.74 169.01L433.84 168.07L434.08 167.17L433.19 166.38L432.06 165.65L430.36 165.1L429.35 165.52L428.85 166.64L428.07 167.68L427.15 168.07L426.17 168.42L425.95 169.38L425.1 169.38L425.35 170.42L424.39 170.92L423.52 171.81L422.46 172.47L421.54 172.86L420.42 172.49L419.45 171.91L418.35 171.31L417.29 171.27L416.35 170.67L416.39 169.43L417.29 169.31L417.37 168.02L416.52 167.76L417.31 166.9L417.49 165.16L416.63 164.34L415.75 164.69L414.07 165L412.8 164.86L411.56 164.5L411.25 163.58L410.49 162.72L411.35 162.22L410.1 161.21L409.81 160.17L410.57 159.25L411.12 158.23L410.62 157.22L410.34 156.19L409.08 156.71L407.54 158.37L405.77 158L404.72 157.26L403.62 157.53L402.53 157.47L401.62 157.26L400.47 156.35L398.53 156.09L397.67 157.03L397.15 157.99L396.61 159.56L395.76 159.95L394.82 160.61L393.79 161.03L392.74 160.79L391.72 159.91L390.83 158.75L389.74 157.34L388.66 156.33L387.17 156.06L385.38 155.96L384.09 157.03L383.21 157.19L382.27 157.22L381.23 157.76L380.36 157.16L378.97 156.8L378.09 155.96L377.09 156.06L375.68 156.43L374.8 155.41L373.8 154.91L372.94 154.08L371.17 153.61L370.52 152.73L369.55 153.16L368.53 153.45L367.62 153.77L366.76 153.3L365.58 153.2L364.7 153.48L363.86 153.5L363.68 152.61L362.63 153.27L360.98 152.88L360.98 152.04L360.69 150.97L360.67 150.04L360.18 149.09L360.07 148.25L360.25 147.14L360.2 146.09L359.28 146.12L358.95 145.26L358.01 144.23L357.12 143.56L357.22 142.67L356.24 142.64ZM562.27 178.68L562.44 178.63L562.76 177.79L562.27 178.68Z" id="b72k2NGGG"></path><path d="M356.07 555.59L356.16 555.59L357.38 556.8L357.67 558.31L358.58 559.8L358.69 562.14L360.1 563.29L360.05 564.97L360.49 567.03L361.51 569.01L362 572.31L362.03 573.63L363.08 574.08L364.23 574.7L364.87 575.59L365.29 576.61L365.17 577.61L364.98 578.46L364.46 579.3L365.09 580.14L365.9 581.28L367.15 581.02L368.19 580.38L369.48 581.44L370.83 581.02L371.72 581.39L371.66 582.33L372.61 582.57L373.13 581.52L373.71 582.64L374.72 583.43L375.58 583.15L376.78 583.35L377.67 582.68L378.61 582.88L378.97 583.87L379.26 584.81L380.1 585.2L381.09 584.92L381.59 585.81L381.41 586.88L382.48 587.21L383.36 587.61L382.47 588.08L383.32 588.42L384.36 588.92L384.43 589.77L385.43 590.07L386.45 589.18L387.54 589.12L388.49 588.88L389.42 589.77L389.79 590.61L390.46 589.65L390.88 590.64L391.82 590.54L392.32 591.57L393.45 591.94L393.34 590.98L394.26 590.61L395.22 590.98L395.04 591.99L395.92 592.51L396.95 593.58L397.96 594.42L398.98 594.27L399.89 594.61L400.02 595.46L400.68 596.53L401.72 597.25L402.06 596.4L403.19 596.57L402.25 597.4L403.15 597.98L403.97 599.05L405.61 599.22L406.55 600.07L407.47 599.1L408.06 600.06L408.91 599.99L409.87 599.47L411.02 599.8L411.91 599.72L411.69 600.71L412.54 600.46L413.55 600.74L413.84 599.6L414.78 599.91L415.62 599.77L416.47 599.82L417.57 599.6L418.48 599.52L419.38 599.91L420.5 599.36L421.65 599.17L422.2 600.16L423.29 599.94L424.13 599.82L424.97 600.29L425.27 601.14L426.11 600.59L426.32 601.57L427.44 601.24L428.83 601.03L429.69 601.53L430.76 600.92L430.5 601.94L431.75 601.66L431.47 602.59L432.38 602.68L432.04 603.54L432.92 604.19L433.89 605.11L434.78 605.54L434.39 606.41L435.9 606.49L436.81 607.4L436.94 608.34L437.18 609.23L438.26 608.53L438.51 609.54L439.37 609.77L440.21 609.36L440.71 610.27L441.1 611.24L442.38 610.96L443.04 611.92L443.97 611.78L443.86 610.87L444.62 609.99L444.29 608.99L443.89 608.13L444.78 607.42L445.78 607.06L446.63 606.75L447.49 606.65L448.38 606.54L448.38 605.63L449.82 605.78L450.73 605.24L451.63 605.29L452.48 605.28L453.38 605.18L454.29 605.44L454.32 604.6L456.85 604.43L456.72 600.64L456.93 599.38L456.71 598.16L456.07 597.27L455.96 595.03L455.65 592.15L455.3 589.39L453.87 582.44L452.59 576.93L451.25 571.41L450.76 570.26L449.53 566.74L448.1 561.16L447.29 557.27L446.67 552.96L446.37 549.06L446.25 547.65L446.25 545.41L446.42 542.19L446.69 538.91L446.89 537.45L447.47 534.49L447.84 533L449.28 527.63L449.59 526.71L451.89 520.79L453.48 517.07L455.3 513.11L458.73 507.1L460.61 505.09L461.73 504.17L462.86 500.24L463.82 498.82L465.18 497.02L466.72 495.06L468.13 493.39L472.6 489.05L477.43 484.9L479.46 483.39L482.44 481.3L487.26 478.69L488.63 478.09L489.56 477.47L490.95 475.55L491.26 474.54L492.05 473.52L493.27 473.23L494.5 472.14L494.9 471.06L495.94 470.31L498.37 468.64L503.23 466.02L506.69 464.25L512.41 461.48L516.85 459.15L518.11 458.43L528 452.31L529.83 451.48L533.2 449.26L534.06 449.24L535.13 449.02L536.25 448.6L537.67 447.69L538.22 446.78L539.1 445.65L540.83 444.5L542 443.52L542.96 442.63L544.12 441.42L546.63 438.45L547.53 437.8L548.32 435.99L548.43 434.87L552.37 432.89L554.04 431.76L556.41 429.88L559.7 427.74L562.78 425.92L564.22 424.38L565.48 423.14L566.44 423.43L567.64 423.22L568.72 422.16L569.55 420.25L569.36 418.99L568.37 417.64L569.52 416.83L575.25 413.83L578.92 412.12L581.15 411.21L592.35 405.97L596.53 404.37L602.37 404.37L603.78 404.56L604.56 405.45L605.54 405.91L606.55 405.92L605.9 402.47L605.5 400.8L603.83 398.19L602.94 397.25L602.71 396.33L601.43 395.34L601.36 394.26L602.01 393.28L603.28 392.28L604.69 391.26L605.82 389.6L606.42 388.29L606.58 387.37L607.05 385.88L607.73 384.44L608.7 383.62L609.9 382.64L610.07 381.78L611.64 380.19L610.68 379.3L611.07 378.31L611.73 377.08L612.09 376.04L611.64 374.99L611.3 373.97L611.1 372.99L610.83 372L611.25 371.13L611.36 370.22L611.41 369.31L611.56 368.42L610.91 367.58L609.9 366.98L609.21 365.96L609.06 365.05L609.45 364.1L609.26 363.06L609.69 362.09L610.47 361.16L610.58 360.22L611.59 360.01L611.69 359.17L611.2 358.07L611.31 357.18L611.23 356.22L610.92 355.28L610.03 354.37L610.34 353.53L610.5 352.36L611.61 351.57L612.46 351.37L612.55 350.48L612.46 349.56L612.56 348.68L613.13 347.76L613.99 347.11L614.91 346.67L615.41 345.78L615.59 344.78L615.93 343.81L615.96 342.91L616.32 342.06L617.12 341.15L617.5 339.9L617.99 339.03L618.46 338.05L618.3 337.13L617.97 336.22L617.59 335.18L618.44 334.34L618.93 333.4L619.72 332.45L619.51 331.51L618.64 330.82L617.75 330.32L617.57 329.46L617.65 328.49L618.65 328.46L619.9 327.92L620 326.72L619.95 325.88L619.42 324.94L618.53 324.7L618.01 323.84L618.82 322.93L619.19 322.09L618.82 321.17L619.17 320.06L619.25 319.84L616.97 319.84L616.84 319.93L616.77 319.84L615.98 319.01L616.19 317.47L616.52 316.45L615.61 316.04L615.62 315.04L615.53 314.67L356.07 314.67L356.07 555.59Z" id="aoiDXxj2o"></path><path d="M184.99 27.62L185.04 55.04L184.98 64.62L185.03 66.45L184.93 102.98L184.96 109.06L184.9 147.56L184.93 163.51L183.96 219.42L183.97 274.2L84.09 274.22L44.13 274.09L21.55 274.51L20.7 275.5L21.57 276.16L21.75 277.02L21.34 277.96L21.91 278.61L20.91 279.18L20.48 280.1L20.86 281.1L21.26 282.11L22.36 283.02L23 283.97L24.15 284.57L25.38 285.27L25.72 286.19L26.56 287.31L27.5 288.01L28.49 287.42L29.82 287.55L30.87 287.88L32.59 289.11L32.85 289.97L33.89 290.84L34.58 292.66L35.99 294.93L36.3 295.95L36.67 296.84L37.03 298.22L38.59 299.34L39.59 301.57L39.87 302.74L40.71 303.68L41.83 304.08L42.69 305.06L43.82 305.72L44.89 305.88L46.41 307.23L49.64 307.52L51.97 309.03L52.25 310.42L52.98 311.88L54.27 312.2L54.84 313.13L55.83 313.19L56.69 314.5L57.34 315.44L58.15 316.42L59.25 317.94L59.91 319.01L60.68 320.03L61.65 320L63.09 321.52L66.01 322.82L66.9 323.63L68.21 324.94L68.81 325.9L69.07 327.06L69.56 328.22L69.8 329.17L70.74 329.87L71.78 330.5L72.6 330.79L73.32 332.17L74.31 333.08L75.23 333.77L76.09 334.49L77.25 335.09L77.5 336.08L77.19 336.98L78.19 337.21L79.1 337.47L80.14 338.15L81.01 338.46L81.44 339.37L82.33 338.68L82.94 339.59L83.8 340.29L84.82 339.84L85.71 339.66L86.1 340.73L87.04 340.82L87.48 341.73L88.34 341.8L88.6 342.64L89.62 342.7L90.48 343.08L90.82 344.02L91.55 344.92L92.42 345.26L92.8 346.16L93.67 346.07L94.58 346.48L95.45 346.51L96.17 347.76L96.28 348.6L96.44 349.74L97.38 350.35L98.27 350.79L99.12 351.02L99.75 351.91L100.3 353.01L100.67 353.85L101 354.84L101.39 355.81L101.63 356.72L101.52 357.58L101.5 358.65L101.92 359.72L102.08 360.56L102.07 361.41L102.23 362.7L103.28 363.38L104.16 363.72L103.64 364.61L104.32 365.55L105.19 366.19L105.62 367.06L106.44 367.35L106.59 368.41L106.93 369.44L108.14 369.95L108.97 370.95L109.13 372.15L109.42 373.11L109.8 374.16L109.81 375.07L109.72 376.09L109.44 376.93L109.62 377.85L109.83 379.02L109.65 379.96L109.08 380.8L109.21 381.86L109.55 382.77L109.68 383.62L109.89 384.52L109.91 385.42L110.48 386.28L110.1 387.22L110.17 388.13L111.13 389.23L111.69 390.2L112.44 391.24L113.18 392.25L112.92 393.12L113.77 393.88L114.24 394.89L114.97 395.78L115.36 396.69L115.65 397.68L116.13 398.58L116.31 399.51L116.38 400.46L116.38 401.32L117.22 402.02L117.62 402.86L118.06 403.7L118.95 404.04L119.83 404.69L120.57 405.55L123.23 407.95L123.8 408.84L124.67 409.25L126.12 409.98L126.99 409.94L127.88 410.15L129.33 410.85L130.39 411.35L130.69 412.39L131.68 412.28L131.53 413.14L131.63 414.03L132.96 415.24L133.3 416.13L134.07 417.03L134.93 417.64L135.86 418.31L136.76 418.79L137.77 419.7L138.64 420.35L139.52 421.09L140.49 421.51L141.61 421.97L142.84 422.26L143.8 422.44L144.93 423.01L145.82 422.86L146.7 422.99L147.88 423.18L148.74 423.67L149.75 423.6L150.39 424.45L151.35 424.8L151.25 425.68L151.41 426.54L152.42 426.28L152.99 427.15L153.62 428.05L154.59 428.55L155.45 428.82L156.34 429.1L157.12 429.96L157.96 429.93L158.95 429.55L159.86 430.4L161.07 430.17L162.03 430.67L162.94 431.11L163.49 431.97L164.41 432.87L165.45 433.94L165.38 434.97L166.32 434.84L167.1 435.76L167.93 436.54L168.87 436.83L169.79 437.32L170.76 437.36L171.02 436.41L171.96 436.83L172 437.72L172.9 437.36L172.81 438.43L173.8 438.55L174.15 439.88L174.7 438.82L176.13 439.45L177.1 439.29L178.15 439.49L179.42 440.14L180.31 439.84L181.57 439.47L181.56 438.6L182.43 437.17L182.11 436.18L183 435.32L183.39 434.45L183.97 433.6L185.12 433.3L185.29 432.36L186.24 431.46L186.55 430.48L187.1 429.63L187.78 428.43L188.87 428.81L189.73 428.3L190.62 427.71L191.51 427.14L192.45 426.91L192.92 425.99L192.04 425.14L191.18 424.37L191.35 423.49L192.03 422.54L191.8 421.69L192.17 420.75L192.72 419.31L193.97 418.63L194.54 417.35L195.43 416.57L194.81 415.73L194.64 414.82L194.96 413.83L195.3 412.83L196.01 411.97L195.71 411.01L196.18 409.6L197.03 408.82L197.07 407.87L197.78 406.85L197.63 405.86L198.49 406.13L198.85 405.26L198.7 403.91L199.58 402.93L200.23 402.07L200.63 401.01L201.07 399.86L201.44 398.71L202.43 398.31L203.84 398.32L204.73 397.64L205.67 397.56L206.89 396.56L207.26 397.59L208.18 397.25L209.14 396.67L208.95 395.68L209.85 395.8L211.13 395.83L212.16 396.01L213.14 396.25L214.12 396.69L215.01 396.33L215.36 395.33L215.54 394.35L216.04 392.83L216.6 391.65L217.44 391.34L218.33 390.54L219.66 391.26L220.5 391.08L221.34 391.26L222.01 392.13L223.16 392.41L224.26 392.26L224.37 393.33L225.49 394.11L226.4 394.69L227.31 395.2L228.26 395.26L229.25 395.52L230.32 395.58L231.29 394.68L232.32 394.69L233.17 394.95L234.11 394.08L234.7 395L235.54 394.81L235.83 395.73L236.64 394.89L238.28 395.11L239.19 394.39L240.01 395.15L240.87 395.24L240.56 394.39L241.44 394.82L241.76 395.91L242.93 395.39L244.07 396.01L245.01 396.28L245.9 396.88L247.14 396.93L248.05 396.38L248.83 397.29L249.64 396.38L250.71 396.18L252.14 396.23L252.35 394.86L253.53 394.19L253.71 395.44L254.05 396.99L255.3 396.72L256.4 395.65L257.45 395.44L257.48 396.31L258.26 397.46L260.06 396.85L259.3 397.71L260.14 398.39L260.14 399.49L261.29 400.62L261.5 401.86L262.48 402.33L264.45 402.97L264.52 403.83L263.97 405.62L264.03 406.51L264.99 407.3L265.59 406.25L265.6 405.37L265.99 404.09L266.83 404.42L266.75 405.5L266.83 408.11L266.35 409.2L266.64 410.11L267.89 409.99L269.48 410.11L270.43 411L271.34 412.47L272.34 412.41L273.54 412.83L274.76 413.18L275.68 414.09L276.3 415.06L276.51 416.1L277.4 417.19L277.63 418.11L278.49 418.69L279.57 419.36L280.61 419.59L281.55 420.7L282.64 421.51L283.67 422.23L284.47 423.49L285.63 424.19L286.67 424.71L287.53 425.1L288.08 426.12L288.58 427.07L288.92 427.92L288.52 429.12L289.26 430.01L290.25 431L291.53 432.05L292.72 432.57L293.33 433.57L293.62 434.54L293.67 435.99L293.8 436.89L294.09 437.77L294.3 438.82L294.34 439.86L294.35 440.77L294.21 441.71L294.77 442.58L294.89 443.46L295.91 443.99L296.9 444.67L296.98 445.6L297.79 446.93L297.9 448.14L299 448.69L299.6 449.62L299.46 450.8L299.6 451.8L300.46 452.31L300.82 453.29L300.82 454.14L300.66 455.56L301.31 457.33L301.34 457.35L302.29 457.95L303.61 458.5L303.48 459.6L304.32 460.73L305.81 461.87L305.18 463.23L305.68 464.31L306.23 465.21L307.42 465.55L308.5 465.92L308.24 466.76L307.17 467.38L307.93 468.25L308.53 469.14L308.57 470L308 471.35L308.36 472.32L309.47 473.83L310.09 475.09L310.79 476.05L310.83 476.91L311.03 478.58L311.74 479.69L312.71 480.59L314.03 480.97L314.19 482.14L314.46 482.98L315.49 483.23L316.64 484.2L317.51 484.2L318.5 484.88L320.12 485.48L320.69 486.79L321.43 487.86L321.85 489.08L322.97 489.63L323.23 490.49L323.38 491.38L323.69 492.4L324.12 493.32L325 493.99L326.25 494.33L327.06 495.19L326.75 496.19L327.35 497.39L328.53 498.22L328.81 499.27L328.34 500.24L328.82 501.3L329.63 502.29L329.73 503.66L329.91 504.67L331.06 505.53L331.59 506.4L332.5 505.8L332.84 506.63L333.26 507.89L334.45 508.09L335.03 509.19L336.18 510.65L336.68 511.7L337.7 512.29L338.63 512.09L339.58 512.71L339.55 513.63L340.46 513.86L341.51 513.26L342.52 513.21L343.26 514.31L343.21 515.2L344.3 514.54L345.16 515.79L346.05 516.84L345.95 517.89L345.79 518.9L345.65 519.79L345.61 520.99L346.7 520.79L347.66 521.44L347.46 522.8L347.01 524.16L347.38 525.66L347.14 526.73L346.84 527.76L346.46 528.8L346.39 529.92L345.37 530.47L345.84 531.55L346.76 531.44L347.38 532.33L347.67 533.97L348.98 533.74L349.49 535.23L349.42 536.22L349.88 537.15L350.17 538.56L349.65 539.75L349.94 540.66L349.86 541.67L349.99 543.01L349.79 543.9L349.07 545.23L349.37 546.38L349.6 547.4L350.67 547.26L351.2 548.34L352.45 549.43L351.66 550.35L351.92 551.26L353.15 552.1L354.23 552.44L354.95 553.32L355.17 555.56L356.07 555.59L356.07 141.91L355.05 142.23L354.11 141.07L353.25 139.66L352.24 139.59L351.69 140.97L351.85 141.97L351.58 142.83L350.73 143.93L349.63 144.29L348.74 143.8L348.01 142.96L346.84 142.22L345.94 141.92L344.92 141.99L343.96 141.76L342.96 142.3L342.94 143.19L342.24 144.1L341.14 144.16L340.04 143.68L338.98 143.93L337.9 143.9L336.99 143.01L336.44 142.14L335.19 141.55L334.35 140.45L333.39 139.75L332.39 138.29L331.59 137.23L330.67 136.59L329.96 135.72L329.23 134.66L328.37 134.03L326.96 133.03L326.07 132.93L325.26 133.82L323.95 133.92L323.95 27.77L301.34 27.77L301.34 27.64L279.33 27.64L273.75 27.69L227.02 27.61L184.99 27.62Z" id="eoHqXsDCn"></path><path d="M335.57 313.01C335.57 352.76 303.3 385.03 263.56 385.03C223.81 385.03 191.54 352.76 191.54 313.01C191.54 273.27 223.81 241 263.56 241C303.3 241 335.57 273.27 335.57 313.01Z" id="arL3jqcnO"></path><path d="M260.56 276.27C260.56 280.39 257.08 283.74 252.8 283.74C248.51 283.74 245.04 280.39 245.04 276.27C245.04 272.15 248.51 268.8 252.8 268.8C257.08 268.8 260.56 272.15 260.56 276.27Z" id="b8N2Eum6q"></path><path d="M278.97 282.51C275.75 285.08 270.97 284.45 268.3 281.1C265.63 277.76 266.08 272.95 269.3 270.38C272.52 267.81 277.31 268.44 279.98 271.79C282.65 275.14 282.2 279.94 278.97 282.51Z" id="c9fJ6BcsZC"></path><path d="M273.78 354.74C273.88 360.17 269.39 364.67 263.75 364.78C258.11 364.89 253.44 360.57 253.33 355.14C253.23 349.71 257.72 345.21 263.36 345.1C269.01 344.99 273.67 349.31 273.78 354.74Z" id="cTXhZNQK"></path></defs><g><g><g><use xlink:href="#a2rGhYDLmQ" opacity="1" fill="#ffffff" fill-opacity="1"></use><g><use xlink:href="#a2rGhYDLmQ" opacity="1" fill-opacity="0" stroke="#000000" stroke-width="1" stroke-opacity="0"></use></g></g><g><use xlink:href="#b72k2NGGG" opacity="1" fill="#000000" fill-opacity="0"></use><g><use xlink:href="#b72k2NGGG" opacity="1" fill-opacity="0" stroke="#bf0a30" stroke-width="4" stroke-opacity="1"></use></g></g><g><use xlink:href="#aoiDXxj2o" opacity="1" fill="#bf0a30" fill-opacity="1"></use><g><use xlink:href="#aoiDXxj2o" opacity="1" fill-opacity="0" stroke="#000000" stroke-width="1" stroke-opacity="0"></use></g></g><g><use xlink:href="#eoHqXsDCn" opacity="1" fill="#002868" fill-opacity="1"></use><g><use xlink:href="#eoHqXsDCn" opacity="1" fill-opacity="0" stroke="#000000" stroke-width="1" stroke-opacity="0"></use></g></g><g><use xlink:href="#arL3jqcnO" opacity="1" fill="#ffffff" fill-opacity="1"></use></g><g><use xlink:href="#b8N2Eum6q" opacity="1" fill="#bf0a30" fill-opacity="1"></use></g><g><use xlink:href="#c9fJ6BcsZC" opacity="1" fill="#bf0a30" fill-opacity="1"></use></g><g><use xlink:href="#cTXhZNQK" opacity="1" fill="#bf0a30" fill-opacity="1"></use></g></g></g></svg>